<svg width="200" height="200" viewBox="0 0 200 200" xmlns="http://www.w3.org/2000/svg">
  <circle cx="100" cy="100" r="100" fill="#8b5cf6" />
  <circle cx="100" cy="80" r="40" fill="#f0f0f0" />
  <path d="M100 130 C 60 130, 40 170, 40 200 L 160 200 C 160 170, 140 130, 100 130 Z" fill="#f0f0f0" />
  <path d="M70 80 C 70 80, 60 60, 80 60 C 100 60, 90 80, 90 80" stroke="#333" stroke-width="2" fill="none" />
  <path d="M110 80 C 110 80, 100 60, 120 60 C 140 60, 130 80, 130 80" stroke="#333" stroke-width="2" fill="none" />
  <path d="M85 100 C 95 110, 105 110, 115 100" stroke="#333" stroke-width="2" fill="none" />
  <path d="M60 60 C 60 30, 140 30, 140 60" fill="#9333ea" />
</svg>